<svg xmlns="http://www.w3.org/2000/svg" viewBox="0 0 480 360" role="img" aria-labelledby="title desc">
  <title id="title">Card grid</title>
  <desc id="desc">Results rendered as a 3x3 grid of cards. Non-linear spatial order — position is not equivalent to row index. Entry from any side.</desc>

  <!-- Canvas -->
  <rect x="0.75" y="0.75" width="478.5" height="358.5" rx="10" fill="#0a0a0a" stroke="#2a2a2a" stroke-width="1.5"/>

  <!-- 3 x 3 card grid. Grid area: x=24,y=28,w=432,h=304. Gap=14. Card 134x92. -->
  <g transform="translate(24, 28)">
    <!-- Row 1 -->
    <g transform="translate(0, 0)">
      <rect x="0" y="0" width="134" height="92" rx="6" fill="#141414" stroke="#2a2a2a" stroke-width="1"/>
      <rect x="10" y="12" width="110" height="9" rx="2" fill="#6ea8fe"/>
      <rect x="10" y="28" width="60"  height="3" rx="1" fill="#909090"/>
      <rect x="10" y="40" width="114" height="3" rx="1" fill="#909090"/>
      <rect x="10" y="48" width="114" height="3" rx="1" fill="#909090"/>
      <rect x="10" y="56" width="80"  height="3" rx="1" fill="#909090"/>
      <rect x="10" y="74" width="40"  height="3" rx="1" fill="#909090"/>
    </g>
    <g transform="translate(149, 0)">
      <rect x="0" y="0" width="134" height="92" rx="6" fill="#141414" stroke="#2a2a2a" stroke-width="1"/>
      <rect x="10" y="12" width="100" height="9" rx="2" fill="#6ea8fe"/>
      <rect x="10" y="28" width="55"  height="3" rx="1" fill="#909090"/>
      <rect x="10" y="40" width="114" height="3" rx="1" fill="#909090"/>
      <rect x="10" y="48" width="90"  height="3" rx="1" fill="#909090"/>
      <rect x="10" y="56" width="114" height="3" rx="1" fill="#909090"/>
      <rect x="10" y="74" width="50"  height="3" rx="1" fill="#909090"/>
    </g>
    <g transform="translate(298, 0)">
      <rect x="0" y="0" width="134" height="92" rx="6" fill="#141414" stroke="#2a2a2a" stroke-width="1"/>
      <rect x="10" y="12" width="108" height="9" rx="2" fill="#6ea8fe"/>
      <rect x="10" y="28" width="70"  height="3" rx="1" fill="#909090"/>
      <rect x="10" y="40" width="114" height="3" rx="1" fill="#909090"/>
      <rect x="10" y="48" width="114" height="3" rx="1" fill="#909090"/>
      <rect x="10" y="56" width="70"  height="3" rx="1" fill="#909090"/>
      <rect x="10" y="74" width="45"  height="3" rx="1" fill="#909090"/>
    </g>
    <!-- Row 2 -->
    <g transform="translate(0, 106)">
      <rect x="0" y="0" width="134" height="92" rx="6" fill="#141414" stroke="#2a2a2a" stroke-width="1"/>
      <rect x="10" y="12" width="90"  height="9" rx="2" fill="#6ea8fe"/>
      <rect x="10" y="28" width="60"  height="3" rx="1" fill="#909090"/>
      <rect x="10" y="40" width="114" height="3" rx="1" fill="#909090"/>
      <rect x="10" y="48" width="100" height="3" rx="1" fill="#909090"/>
      <rect x="10" y="56" width="114" height="3" rx="1" fill="#909090"/>
      <rect x="10" y="74" width="52"  height="3" rx="1" fill="#909090"/>
    </g>
    <g transform="translate(149, 106)">
      <rect x="0" y="0" width="134" height="92" rx="6" fill="#141414" stroke="#2a2a2a" stroke-width="1"/>
      <rect x="10" y="12" width="115" height="9" rx="2" fill="#6ea8fe"/>
      <rect x="10" y="28" width="65"  height="3" rx="1" fill="#909090"/>
      <rect x="10" y="40" width="114" height="3" rx="1" fill="#909090"/>
      <rect x="10" y="48" width="114" height="3" rx="1" fill="#909090"/>
      <rect x="10" y="56" width="85"  height="3" rx="1" fill="#909090"/>
      <rect x="10" y="74" width="48"  height="3" rx="1" fill="#909090"/>
    </g>
    <g transform="translate(298, 106)">
      <rect x="0" y="0" width="134" height="92" rx="6" fill="#141414" stroke="#2a2a2a" stroke-width="1"/>
      <rect x="10" y="12" width="95"  height="9" rx="2" fill="#6ea8fe"/>
      <rect x="10" y="28" width="58"  height="3" rx="1" fill="#909090"/>
      <rect x="10" y="40" width="114" height="3" rx="1" fill="#909090"/>
      <rect x="10" y="48" width="100" height="3" rx="1" fill="#909090"/>
      <rect x="10" y="56" width="114" height="3" rx="1" fill="#909090"/>
      <rect x="10" y="74" width="44"  height="3" rx="1" fill="#909090"/>
    </g>
    <!-- Row 3 -->
    <g transform="translate(0, 212)">
      <rect x="0" y="0" width="134" height="92" rx="6" fill="#141414" stroke="#2a2a2a" stroke-width="1"/>
      <rect x="10" y="12" width="104" height="9" rx="2" fill="#6ea8fe"/>
      <rect x="10" y="28" width="60"  height="3" rx="1" fill="#909090"/>
      <rect x="10" y="40" width="114" height="3" rx="1" fill="#909090"/>
      <rect x="10" y="48" width="95"  height="3" rx="1" fill="#909090"/>
      <rect x="10" y="56" width="114" height="3" rx="1" fill="#909090"/>
      <rect x="10" y="74" width="42"  height="3" rx="1" fill="#909090"/>
    </g>
    <g transform="translate(149, 212)">
      <rect x="0" y="0" width="134" height="92" rx="6" fill="#141414" stroke="#2a2a2a" stroke-width="1"/>
      <rect x="10" y="12" width="88"  height="9" rx="2" fill="#6ea8fe"/>
      <rect x="10" y="28" width="55"  height="3" rx="1" fill="#909090"/>
      <rect x="10" y="40" width="114" height="3" rx="1" fill="#909090"/>
      <rect x="10" y="48" width="114" height="3" rx="1" fill="#909090"/>
      <rect x="10" y="56" width="75"  height="3" rx="1" fill="#909090"/>
      <rect x="10" y="74" width="50"  height="3" rx="1" fill="#909090"/>
    </g>
    <g transform="translate(298, 212)">
      <rect x="0" y="0" width="134" height="92" rx="6" fill="#141414" stroke="#2a2a2a" stroke-width="1"/>
      <rect x="10" y="12" width="120" height="9" rx="2" fill="#6ea8fe"/>
      <rect x="10" y="28" width="70"  height="3" rx="1" fill="#909090"/>
      <rect x="10" y="40" width="114" height="3" rx="1" fill="#909090"/>
      <rect x="10" y="48" width="110" height="3" rx="1" fill="#909090"/>
      <rect x="10" y="56" width="114" height="3" rx="1" fill="#909090"/>
      <rect x="10" y="74" width="46"  height="3" rx="1" fill="#909090"/>
    </g>
  </g>
</svg>
