<svg xmlns="http://www.w3.org/2000/svg" viewBox="0 0 480 360" role="img" aria-labelledby="title desc">
  <title id="title">Dense titles-only list</title>
  <desc id="desc">Hacker News style dense list. Titles plus meta, no snippet. Small AOIs, tight row spacing, fast-scan cursor behavior.</desc>

  <!-- Canvas -->
  <rect x="0.75" y="0.75" width="478.5" height="358.5" rx="10" fill="#0a0a0a" stroke="#2a2a2a" stroke-width="1.5"/>

  <!-- 13 rows, compact. Row height 20, gap 4. Start y=28. -->
  <g transform="translate(40, 28)">
    <!-- row 1 -->
    <g>
      <rect x="0"   y="3" width="14"  height="5" rx="1" fill="#909090"/>
      <rect x="22"  y="0" width="280" height="10" rx="2" fill="#6ea8fe"/>
      <rect x="22"  y="14" width="120" height="3" rx="1" fill="#909090"/>
    </g>
    <!-- row 2 -->
    <g transform="translate(0,24)">
      <rect x="0"   y="3" width="14"  height="5" rx="1" fill="#909090"/>
      <rect x="22"  y="0" width="340" height="10" rx="2" fill="#6ea8fe"/>
      <rect x="22"  y="14" width="100" height="3" rx="1" fill="#909090"/>
    </g>
    <!-- row 3 -->
    <g transform="translate(0,48)">
      <rect x="0"   y="3" width="14"  height="5" rx="1" fill="#909090"/>
      <rect x="22"  y="0" width="260" height="10" rx="2" fill="#6ea8fe"/>
      <rect x="22"  y="14" width="140" height="3" rx="1" fill="#909090"/>
    </g>
    <!-- row 4 -->
    <g transform="translate(0,72)">
      <rect x="0"   y="3" width="14"  height="5" rx="1" fill="#909090"/>
      <rect x="22"  y="0" width="310" height="10" rx="2" fill="#6ea8fe"/>
      <rect x="22"  y="14" width="110" height="3" rx="1" fill="#909090"/>
    </g>
    <!-- row 5 -->
    <g transform="translate(0,96)">
      <rect x="0"   y="3" width="14"  height="5" rx="1" fill="#909090"/>
      <rect x="22"  y="0" width="370" height="10" rx="2" fill="#6ea8fe"/>
      <rect x="22"  y="14" width="90"  height="3" rx="1" fill="#909090"/>
    </g>
    <!-- row 6 -->
    <g transform="translate(0,120)">
      <rect x="0"   y="3" width="14"  height="5" rx="1" fill="#909090"/>
      <rect x="22"  y="0" width="240" height="10" rx="2" fill="#6ea8fe"/>
      <rect x="22"  y="14" width="130" height="3" rx="1" fill="#909090"/>
    </g>
    <!-- row 7 -->
    <g transform="translate(0,144)">
      <rect x="0"   y="3" width="14"  height="5" rx="1" fill="#909090"/>
      <rect x="22"  y="0" width="290" height="10" rx="2" fill="#6ea8fe"/>
      <rect x="22"  y="14" width="105" height="3" rx="1" fill="#909090"/>
    </g>
    <!-- row 8 -->
    <g transform="translate(0,168)">
      <rect x="0"   y="3" width="14"  height="5" rx="1" fill="#909090"/>
      <rect x="22"  y="0" width="330" height="10" rx="2" fill="#6ea8fe"/>
      <rect x="22"  y="14" width="85"  height="3" rx="1" fill="#909090"/>
    </g>
    <!-- row 9 -->
    <g transform="translate(0,192)">
      <rect x="0"   y="3" width="14"  height="5" rx="1" fill="#909090"/>
      <rect x="22"  y="0" width="220" height="10" rx="2" fill="#6ea8fe"/>
      <rect x="22"  y="14" width="150" height="3" rx="1" fill="#909090"/>
    </g>
    <!-- row 10 -->
    <g transform="translate(0,216)">
      <rect x="0"   y="3" width="14"  height="5" rx="1" fill="#909090"/>
      <rect x="22"  y="0" width="300" height="10" rx="2" fill="#6ea8fe"/>
      <rect x="22"  y="14" width="120" height="3" rx="1" fill="#909090"/>
    </g>
    <!-- row 11 -->
    <g transform="translate(0,240)">
      <rect x="0"   y="3" width="14"  height="5" rx="1" fill="#909090"/>
      <rect x="22"  y="0" width="360" height="10" rx="2" fill="#6ea8fe"/>
      <rect x="22"  y="14" width="95"  height="3" rx="1" fill="#909090"/>
    </g>
    <!-- row 12 -->
    <g transform="translate(0,264)">
      <rect x="0"   y="3" width="14"  height="5" rx="1" fill="#909090"/>
      <rect x="22"  y="0" width="250" height="10" rx="2" fill="#6ea8fe"/>
      <rect x="22"  y="14" width="115" height="3" rx="1" fill="#909090"/>
    </g>
    <!-- row 13 -->
    <g transform="translate(0,288)">
      <rect x="0"   y="3" width="14"  height="5" rx="1" fill="#909090"/>
      <rect x="22"  y="0" width="280" height="10" rx="2" fill="#6ea8fe"/>
      <rect x="22"  y="14" width="100" height="3" rx="1" fill="#909090"/>
    </g>
  </g>
</svg>
